<svg id="Layer_1" data-name="Layer 1" xmlns="http://www.w3.org/2000/svg" viewBox="0 0 856.01 277.93"><defs><style>.cls-1{fill:#2e437d;}.cls-2{fill:#f1636f;}</style></defs><path class="cls-1" d="M138.7,92.51q20.55,22.08,20.55,56c0,22.58-2.17,47.62-20.55,56.26-21.17,9.94-31.22,22.38-52.53,22.38q-28.32,0-45.06-18.15v69H0V73.76H37.76V92.51Q53.9,70.43,86.17,70.43,118.14,70.43,138.7,92.51Zm-32.43,86.05q11.27-11.34,11.26-29.79,0-18.75-11.11-30.1T78.56,107.33a38.1,38.1,0,0,0-26.8,10.44Q40.5,128.2,40.5,148.47q0,20,11.11,30.7a37.35,37.35,0,0,0,27,10.74A37.51,37.51,0,0,0,106.27,178.56Z"/><path class="cls-1" d="M228.5,226.86H187.4V0h41.1Z"/><path class="cls-1" d="M402.49,157.54q0,31.16-19.64,50.36t-49.47,19.21q-30.45,0-50.09-19.06t-19.64-50.51V73.76h41.1v87.11q0,13,8.07,20.87t20.56,7.87a27.48,27.48,0,0,0,19.94-7.87q8.07-7.86,8.07-20.87V73.76h41.1Z"/><path class="cls-1" d="M629.19,190.51q-14.62,0-21.32-5.29t-6.7-18v-59H643.8V73.76H601.17V36h-41.1V73.76H488.79V36H447.68V73.76H423.93v34.48h23.75v62.61q0,28.14,15.83,42.19T508,227.11a117.42,117.42,0,0,0,28.32-3.63V189.3q-15.84,1.22-19.49,1.21-14.61,0-21.31-5.29t-6.7-18v-59h71.28v62.61q0,28.14,15.83,42.19t44.46,14.07a117.27,117.27,0,0,0,28.31-3.63V189.3Q632.85,190.52,629.19,190.51Z"/><path class="cls-2" d="M834.29,145.94c-.7-22.67-22.26-32.16-38.71-45.91C780.82,87.69,771.43,70,749,70.72c-47.34,1.44-79.57,37.33-78.24,80.35s38.51,76.8,83.05,75.45S835.61,189,834.29,145.94Zm-54,31.89q-11.12,11.49-27.87,11.49-17.05,0-28-11.34t-11-29.2q0-17.85,11-29.5t28-11.65q16.75,0,27.87,11.8t11.12,29.35Q791.38,166.33,780.26,177.83Z"/><path class="cls-2" d="M855.87,58.85A25.58,25.58,0,0,1,833.11,87c-14.05,1.48-31-8.92-28.12-22.76,3.1-15.12,8.71-26.64,22.76-28.12A25.58,25.58,0,0,1,855.87,58.85Z"/></svg>